<?xml version="1.0" standalone="no"?>
<svg xmlns:xlink="http://www.w3.org/1999/xlink" id="wave" style="transform:rotate(0deg); transition: 0.3s" viewBox="0 0 1440 490" version="1.1" xmlns="http://www.w3.org/2000/svg"><defs><linearGradient id="sw-gradient-0" x1="0" x2="0" y1="1" y2="0"><stop stop-color="rgba(146.202, 8.126, 150.685, 1)" offset="0%"/><stop stop-color="rgba(229, 18, 236, 1)" offset="100%"/></linearGradient></defs><path style="transform:translate(0, 0px); opacity:1" fill="url(#sw-gradient-0)" d="M0,294L20,294C40,294,80,294,120,310.3C160,327,200,359,240,383.8C280,408,320,425,360,400.2C400,376,440,310,480,285.8C520,261,560,278,600,277.7C640,278,680,261,720,253.2C760,245,800,245,840,277.7C880,310,920,376,960,351.2C1000,327,1040,212,1080,155.2C1120,98,1160,98,1200,130.7C1240,163,1280,229,1320,261.3C1360,294,1400,294,1440,269.5C1480,245,1520,196,1560,155.2C1600,114,1640,82,1680,114.3C1720,147,1760,245,1800,236.8C1840,229,1880,114,1920,65.3C1960,16,2000,33,2040,81.7C2080,131,2120,212,2160,236.8C2200,261,2240,229,2280,196C2320,163,2360,131,2400,155.2C2440,180,2480,261,2520,253.2C2560,245,2600,147,2640,98C2680,49,2720,49,2760,40.8C2800,33,2840,16,2860,8.2L2880,0L2880,490L2860,490C2840,490,2800,490,2760,490C2720,490,2680,490,2640,490C2600,490,2560,490,2520,490C2480,490,2440,490,2400,490C2360,490,2320,490,2280,490C2240,490,2200,490,2160,490C2120,490,2080,490,2040,490C2000,490,1960,490,1920,490C1880,490,1840,490,1800,490C1760,490,1720,490,1680,490C1640,490,1600,490,1560,490C1520,490,1480,490,1440,490C1400,490,1360,490,1320,490C1280,490,1240,490,1200,490C1160,490,1120,490,1080,490C1040,490,1000,490,960,490C920,490,880,490,840,490C800,490,760,490,720,490C680,490,640,490,600,490C560,490,520,490,480,490C440,490,400,490,360,490C320,490,280,490,240,490C200,490,160,490,120,490C80,490,40,490,20,490L0,490Z"/></svg>